<svg width="3148" height="2378" viewBox="0 0 3148 2378" fill="none" xmlns="http://www.w3.org/2000/svg">
<rect width="3148" height="2378" fill="white"/>
<path d="M258.59 2234.7C559.011 927.003 2431.14 648.707 2987.51 482.307" stroke="#D71C1C" stroke-width="5"/>
<path d="M249.025 2234.59C518.794 928.501 2179.58 614.482 2987.85 401.986" stroke="#D71C1C" stroke-width="5"/>
<path d="M237.733 2234.59C413.354 1293.46 1149.83 739.283 2987.51 310.719" stroke="#D71C1C" stroke-width="5"/>
<path d="M226.9 2234.48C402.06 1141.69 1257.23 608.72 2987.51 203.779" stroke="#D71C1C" stroke-width="5"/>
<path d="M215.146 2234.82C264.122 1773.42 500.011 1118.53 1225.31 718.54C1961.79 312.39 2398.19 247.223 2709.33 143.51" stroke="#D71C1C" stroke-width="5"/>
<path d="M204.544 2234.59C261.125 1807.06 351.286 1143.92 1129.55 634.303C1330.24 483.269 1976.07 197.671 2184.77 143.51" stroke="#D71C1C" stroke-width="5"/>
<path d="M193.943 2234.82C220.678 1903.52 285.441 1363.52 612.482 928.04C667.151 854.381 917.168 489.335 1667.59 143.395" stroke="#D71C1C" stroke-width="5"/>
<path d="M183.111 2234.59C209.616 1857.54 247.183 1267.18 509.576 837.58C771.624 376.058 1146.26 162.179 1158.13 143.395" stroke="#D71C1C" stroke-width="5"/>
<path d="M171.933 2234.59C198.322 854.174 454.608 454.418 655.926 143.51" stroke="#D71C1C" stroke-width="5"/>
<path d="M294.199 2156.35L160.755 2041.8" stroke="#14EF34" stroke-width="5"/>
<path d="M160.755 1663.25L414.736 1883.93" stroke="#14EF34" stroke-width="5"/>
<path d="M160.87 1284.47L578.487 1649.19" stroke="#14EF34" stroke-width="5"/>
<path d="M160.985 907.067L777.731 1448.22" stroke="#14EF34" stroke-width="5"/>
<path d="M160.87 529.322L1008.67 1274.33" stroke="#14EF34" stroke-width="5"/>
<path d="M1264.14 1123.6L160.87 152.038" stroke="#14EF34" stroke-width="5"/>
<path d="M573.994 143.395L1540.83 991.421" stroke="#14EF34" stroke-width="5"/>
<path d="M994.721 143.395L1834.91 875.147" stroke="#14EF34" stroke-width="5"/>
<path d="M1417.64 143.395L2141.44 772.471" stroke="#14EF34" stroke-width="5"/>
<path d="M1840.56 143.395L2461.11 680.167" stroke="#14EF34" stroke-width="5"/>
<path d="M2262.09 143.395L2790.34 597.542" stroke="#14EF34" stroke-width="5"/>
<path d="M2683.74 143.395L2987.74 403.714" stroke="#14EF34" stroke-width="5"/>
<path d="M269.884 2234.94C476.734 1501.57 1142.92 956.158 2987.62 552.715" stroke="black" stroke-width="5"/>
<path d="M2987 2235H160L160.23 143H2987V2235Z" stroke="black" stroke-width="5"/>
</svg>
