<svg width="2824" height="2097" viewBox="0 0 2824 2097" fill="none" xmlns="http://www.w3.org/2000/svg">
<path d="M423.5 1906.5L686 2094.5" stroke="#25BD3C" stroke-width="5"/>
<path d="M1137 2094.5C1136.6 2094.5 845.5 1886.83 700 1783" stroke="#25BD3C" stroke-width="5"/>
<path d="M1588.5 2094.5L943.5 1637" stroke="#25BD3C" stroke-width="5"/>
<path d="M2040 2094.5L1152 1467" stroke="#25BD3C" stroke-width="5"/>
<path d="M2491.5 2094.5L1332 1278" stroke="#25BD3C" stroke-width="5"/>
<path d="M1489.5 1072L2821.5 2018.5" stroke="#25BD3C" stroke-width="5"/>
<path d="M1627.5 853.5L2821.5 1708.5" stroke="#25BD3C" stroke-width="5"/>
<path d="M1750 626L2821.5 1396" stroke="#25BD3C" stroke-width="5"/>
<path d="M1859.5 390L2821.5 1082" stroke="#25BD3C" stroke-width="5"/>
<path d="M1959.5 146L2822 773.5" stroke="#25BD3C" stroke-width="5"/>
<path d="M2193.5 2.5L2821.5 460.5" stroke="#25BD3C" stroke-width="5"/>
<path d="M2.5 2011.5C40.1967 2005.24 60.9307 2001.53 97 1994.5C232.336 1967.32 302.662 1946.71 424.5 1906.5C538.343 1863.4 599.032 1836.28 701 1782C801.947 1729.98 854.146 1697.32 944 1636.5C1030.17 1573.91 1075.49 1536.08 1153.5 1466C1228.21 1394.74 1266.24 1352.89 1332.5 1277.5C1397.45 1198.26 1431.75 1152.96 1490 1071C1547.18 986.508 1576.61 938.803 1627.5 853.5C1676.84 767.034 1703.34 717.046 1749.5 626.5C1794.31 534.55 1818.19 482.401 1860 389C1900.41 295.577 1921.98 242.565 1959 147C1980.06 92.2495 1992.04 60.2756 2013.5 2.5" stroke="black" stroke-width="5"/>
<path d="M2.5 2019C43.5073 2013.56 66.5254 2009.98 107.5 2002.5C239.803 1977.34 313 1959.34 441.5 1919.5C557.668 1879.97 619.032 1852.57 726.5 1801C828.432 1751.78 883.004 1720.59 977.5 1661C1066.7 1600.13 1113.36 1563.41 1193.5 1495.5C1268.92 1424.92 1309.7 1384.37 1379 1310C1445.63 1233.24 1480.55 1188.81 1540 1108C1598.85 1024.23 1629.6 977.145 1682 893C1734.32 805.269 1761.38 755.974 1808.5 668C1853.47 577.921 1877.92 526.747 1921 435C1962.31 340.737 1984.55 287.855 2023 193.5C2052.97 119.123 2069.01 77.2747 2097 2.5" stroke="#D71C1C" stroke-width="5"/>
<path d="M2.5 2028C47.6958 2022.25 72.8288 2018.42 117.5 2011C253.922 1986.81 329.651 1971.33 460.5 1933C579.806 1894.78 643.456 1869.51 754.5 1821.5C862.19 1775.17 918.227 1744.82 1014.5 1687C1106.06 1629.13 1154.13 1593.33 1237.5 1527C1316.97 1459.18 1357.81 1418.89 1429 1346C1497.62 1271.7 1533.71 1228.2 1596 1149C1657.03 1066.56 1688.65 1020.23 1742.5 937.5C1795.97 852.923 1824.13 804.117 1873 716C1920.94 625.765 1946.19 574.914 1990 484C2033.03 391.248 2056.17 339.142 2095.5 246C2134.04 151.492 2155.11 98.1843 2191.5 2.5" stroke="#D71C1C" stroke-width="5"/>
<path d="M2.5 2035.5L129 2019.5C269.759 1998.04 345.96 1981.24 480 1948C602.31 1910.72 669.607 1888.19 786.5 1844C897.506 1797.65 957.8 1770.51 1055 1716C1149.57 1660.27 1200.18 1626.66 1286 1562C1367.69 1496.6 1411.93 1458.63 1485.5 1386.5C1556.78 1313.64 1595.72 1272.07 1659 1193.5C1721.06 1115.46 1755.09 1070.98 1811 987C1866.75 903.279 1896.64 855.474 1947 768.5C1996.07 680.907 2022.56 631.047 2067.5 540.5C2112.16 449.152 2136.02 397.542 2177 305C2218.51 210.802 2240.5 158.125 2276.5 64.5C2286.2 40.2501 2291.36 26.6649 2299.5 2.5" stroke="#D71C1C" stroke-width="5"/>
<path d="M2.5 2044C55.9727 2038.7 86.7426 2035.24 142.5 2028.5C284.325 2010.03 362.937 1994.63 502.5 1963.5C631.208 1930.12 699.876 1908.76 819.5 1868.5C933.041 1826.94 993.979 1800.04 1099.5 1748C1201.34 1694.25 1252.91 1661.44 1341 1601C1427.96 1537.43 1472.39 1500.05 1549.5 1432.5C1623.49 1361.8 1663.43 1320.67 1732 1245C1796.85 1167.68 1831.86 1123.74 1890 1043.5C1948.61 960.501 1979.34 913.593 2031.5 829.5C2083.5 742.936 2110.76 693.884 2158 606C2204.24 516.568 2229.04 465.783 2272 374.5C2314.39 281.559 2337.02 229.455 2376 136.5C2397.49 84.1235 2409.04 54.7781 2428.5 2.5" stroke="#D71C1C" stroke-width="5"/>
<path d="M2.5 2052C63.2634 2047.27 97.0359 2044.1 157 2038C302.415 2021.56 383.348 2009.22 526.5 1980.5C656.327 1950.49 728.603 1931.38 857 1895C973.768 1857.97 1037.71 1833.05 1150 1783.5C1250.32 1736.37 1305.55 1705.35 1403 1645.5C1492.94 1588.25 1540.3 1551.88 1623 1484.5C1702.15 1417.16 1743.33 1377.38 1814.5 1305C1884.03 1230.24 1920.46 1186.98 1983 1108.5C2044 1028.39 2076.69 983.016 2131.5 901C2185.76 817.077 2214.8 769.331 2264.5 683C2313.11 594.757 2339.79 545.148 2384.5 456C2429.08 364.674 2452.8 313.178 2493.5 221L2502.5 202.5L2548 101.5L2590.5 2.5" stroke="#D71C1C" stroke-width="5"/>
<path d="M2.5 2060.5L169.5 2048C321.301 2033.42 404.787 2022.82 550.5 1999C690.147 1972.36 766.723 1956.49 896.5 1924.5C1023.42 1890.13 1091.35 1867.91 1207 1823.5C1316.47 1780.76 1374.57 1751.88 1476 1697C1573.72 1641.15 1625.19 1608.3 1710 1546.5C1794.34 1482.53 1839.66 1445.38 1915 1375.5C1987.52 1304.89 2026.75 1263.92 2094 1188C2159.64 1111.63 2194.18 1067.8 2252.5 988C2310.63 906.504 2341.55 859.868 2394.5 775.5C2437.43 704.635 2461.13 664.631 2502.5 592.5C2627.61 359.262 2687.52 230.917 2794.5 2.5" stroke="#D71C1C" stroke-width="5"/>
<path d="M2.5 2069L183 2058.5C338.617 2046.76 425.348 2037.59 579.5 2018.5C726.033 1997.94 806.216 1984.94 943.5 1957.5C1076.66 1928.6 1149.05 1909.89 1273.5 1871.5C1392.82 1831.4 1456.7 1806.92 1563.5 1758.5C1666.32 1709.62 1722.44 1680.45 1817 1622C1908.58 1562.85 1957.17 1528.07 2039 1463.5C2119.98 1396.95 2162.52 1358.62 2234 1288.5C2304.15 1215.58 2341.89 1173.18 2407.5 1096C2445.07 1049.23 2465.96 1022.67 2503 975C2654.34 777.212 2715.29 686.85 2821.5 509" stroke="#D71C1C" stroke-width="5"/>
<path d="M2.5 2077L199 2069C358.584 2060.94 448.198 2055.51 609 2040C760.995 2025.79 845.702 2016.24 995.5 1995C1135.92 1974.03 1214.07 1959.65 1352 1927.5C1479.29 1896.89 1548.86 1876.23 1671 1835.5C1785.69 1794.31 1847.63 1768.6 1954.5 1718.5C2053.03 1670.8 2107.27 1639.44 2203 1579C2291.25 1522.14 2339.26 1487.16 2423 1420.5L2503 1353C2639.89 1226.74 2702.36 1162.3 2821.5 1028.5" stroke="#D71C1C" stroke-width="5"/>
<path d="M2.5 2085.5L215.5 2080.5C215.5 2080.5 477 2073 644 2065C811 2057 1022.5 2043 1059 2039.5C1218.95 2024.93 1305.09 2015.9 1453.5 1998.5C1599.47 1977.27 1680.04 1964.59 1816.5 1937.5C1947.57 1908.88 2020.14 1891.02 2147.5 1855C2284.44 1812.66 2344.31 1789.72 2447 1749L2502.5 1726.5C2645.78 1664.13 2708.36 1623.02 2821.5 1562.5" stroke="#D71C1C" stroke-width="5"/>
<line x1="2821.5" y1="83.5" x2="1977.5" y2="83.5" stroke="black" stroke-opacity="0.25" stroke-width="2" stroke-dasharray="5 5"/>
<line x1="2821.5" y1="163.5" x2="1929.5" y2="163.5" stroke="black" stroke-opacity="0.25" stroke-width="2" stroke-dasharray="5 5"/>
<line x1="2821.5" y1="244.5" x2="1915.5" y2="244.5" stroke="black" stroke-opacity="0.25" stroke-width="2" stroke-dasharray="5 5"/>
<line x1="2821.5" y1="324.5" x2="1864.5" y2="324.5" stroke="black" stroke-opacity="0.25" stroke-width="2" stroke-dasharray="5 5"/>
<line x1="2821.5" y1="405.5" x2="1848.5" y2="405.5" stroke="black" stroke-opacity="0.25" stroke-width="2" stroke-dasharray="5 5"/>
<line x1="2821.5" y1="485.5" x2="1795.5" y2="485.5" stroke="black" stroke-opacity="0.25" stroke-width="2" stroke-dasharray="5 5"/>
<line x1="2821.5" y1="566.5" x2="1773.5" y2="566.5" stroke="black" stroke-opacity="0.25" stroke-width="2" stroke-dasharray="5 5"/>
<line x1="2821.5" y1="646.5" x2="1718.5" y2="646.5" stroke="black" stroke-opacity="0.25" stroke-width="2" stroke-dasharray="5 5"/>
<line x1="2821.5" y1="727.5" x2="1693.5" y2="727.5" stroke="black" stroke-opacity="0.25" stroke-width="2" stroke-dasharray="5 5"/>
<line x1="2821.5" y1="807.5" x2="1634.5" y2="807.5" stroke="black" stroke-opacity="0.25" stroke-width="2" stroke-dasharray="5 5"/>
<line x1="2821.5" y1="886.5" x2="1603.5" y2="886.5" stroke="black" stroke-opacity="0.25" stroke-width="2" stroke-dasharray="5 5"/>
<line x1="2821.5" y1="968.5" x2="1540.5" y2="968.5" stroke="black" stroke-opacity="0.25" stroke-width="2" stroke-dasharray="5 5"/>
<line x1="2821.5" y1="1047.5" x2="1502.5" y2="1047.5" stroke="black" stroke-opacity="0.25" stroke-width="2" stroke-dasharray="5 5"/>
<line x1="2821.5" y1="1129.5" x2="1431.5" y2="1129.5" stroke="black" stroke-opacity="0.25" stroke-width="2" stroke-dasharray="5 5"/>
<line x1="2821.5" y1="1208.5" x2="1384.5" y2="1208.5" stroke="black" stroke-opacity="0.25" stroke-width="2" stroke-dasharray="5 5"/>
<line x1="2821.5" y1="1290.5" x2="1307.5" y2="1290.5" stroke="black" stroke-opacity="0.25" stroke-width="2" stroke-dasharray="5 5"/>
<line x1="2821.5" y1="1369.5" x2="1246.5" y2="1369.5" stroke="black" stroke-opacity="0.25" stroke-width="2" stroke-dasharray="5 5"/>
<line x1="2821.5" y1="1451.5" x2="1157.5" y2="1451.5" stroke="black" stroke-opacity="0.25" stroke-width="2" stroke-dasharray="5 5"/>
<line x1="2821.5" y1="1530.5" x2="1078.5" y2="1530.5" stroke="black" stroke-opacity="0.25" stroke-width="2" stroke-dasharray="5 5"/>
<line x1="2821.5" y1="1610.5" x2="970.5" y2="1610.5" stroke="black" stroke-opacity="0.25" stroke-width="2" stroke-dasharray="5 5"/>
<line x1="2821.5" y1="1691.5" x2="859.5" y2="1691.5" stroke="black" stroke-opacity="0.25" stroke-width="2" stroke-dasharray="5 5"/>
<line x1="2821.5" y1="1771.5" x2="715.5" y2="1771.5" stroke="black" stroke-opacity="0.25" stroke-width="2" stroke-dasharray="5 5"/>
<line x1="2821.5" y1="1852.5" x2="557.5" y2="1852.5" stroke="black" stroke-opacity="0.25" stroke-width="2" stroke-dasharray="5 5"/>
<line x1="2821.5" y1="1932.5" x2="347.5" y2="1932.5" stroke="black" stroke-opacity="0.25" stroke-width="2" stroke-dasharray="5 5"/>
<line x1="2821.5" y1="2013.5" x2="2.5" y2="2013.5" stroke="black" stroke-opacity="0.25" stroke-width="2" stroke-dasharray="5 5"/>
<line x1="48.5" y1="2094.5" x2="48.5" y2="2002.5" stroke="black" stroke-opacity="0.25" stroke-width="2" stroke-dasharray="5 5"/>
<line x1="93.5" y1="2094.5" x2="93.5" y2="1995.5" stroke="black" stroke-opacity="0.25" stroke-width="2" stroke-dasharray="5 5"/>
<line x1="138.5" y1="2094.5" x2="138.5" y2="1985.5" stroke="black" stroke-opacity="0.25" stroke-width="2" stroke-dasharray="5 5"/>
<line x1="185.5" y1="2094.5" x2="185.5" y2="1975.5" stroke="black" stroke-opacity="0.25" stroke-width="2" stroke-dasharray="5 5"/>
<line x1="228.5" y1="2094.5" x2="228.5" y2="1946.5" stroke="black" stroke-opacity="0.25" stroke-width="2" stroke-dasharray="5 5"/>
<line x1="274.5" y1="2094.5" x2="274.5" y2="1952.5" stroke="black" stroke-opacity="0.25" stroke-width="2" stroke-dasharray="5 5"/>
<line x1="319.5" y1="2094.5" x2="319.5" y2="1940.5" stroke="black" stroke-opacity="0.25" stroke-width="2" stroke-dasharray="5 5"/>
<line x1="365.5" y1="2094.5" x2="365.5" y2="1925.5" stroke="black" stroke-opacity="0.25" stroke-width="2" stroke-dasharray="5 5"/>
<line x1="410.5" y1="2094.5" x2="410.5" y2="1910.5" stroke="black" stroke-opacity="0.25" stroke-width="2" stroke-dasharray="5 5"/>
<line x1="456.5" y1="2094.5" x2="456.5" y2="1877.5" stroke="black" stroke-opacity="0.25" stroke-width="2" stroke-dasharray="5 5"/>
<line x1="502.5" y1="2094.5" x2="502.5" y2="1876.5" stroke="black" stroke-opacity="0.25" stroke-width="2" stroke-dasharray="5 5"/>
<line x1="547.5" y1="2094.5" x2="547.5" y2="1857.5" stroke="black" stroke-opacity="0.25" stroke-width="2" stroke-dasharray="5 5"/>
<line x1="593.5" y1="2094.5" x2="593.5" y2="1836.5" stroke="black" stroke-opacity="0.25" stroke-width="2" stroke-dasharray="5 5"/>
<line x1="638.5" y1="2094.5" x2="638.5" y2="1814.5" stroke="black" stroke-opacity="0.25" stroke-width="2" stroke-dasharray="5 5"/>
<line x1="684.5" y1="2094.5" x2="684.5" y2="1773.5" stroke="black" stroke-opacity="0.25" stroke-width="2" stroke-dasharray="5 5"/>
<line x1="730.5" y1="2094.5" x2="730.5" y2="1765.5" stroke="black" stroke-opacity="0.25" stroke-width="2" stroke-dasharray="5 5"/>
<line x1="775.5" y1="2094.5" x2="775.5" y2="1741.5" stroke="black" stroke-opacity="0.25" stroke-width="2" stroke-dasharray="5 5"/>
<line x1="820.5" y1="2094.5" x2="820.5" y2="1716.5" stroke="black" stroke-opacity="0.25" stroke-width="2" stroke-dasharray="5 5"/>
<line x1="866.5" y1="2094.5" x2="866.5" y2="1688.5" stroke="black" stroke-opacity="0.25" stroke-width="2" stroke-dasharray="5 5"/>
<line x1="912.5" y1="2094.5" x2="912.5" y2="1643.5" stroke="black" stroke-opacity="0.25" stroke-width="2" stroke-dasharray="5 5"/>
<line x1="957.5" y1="2094.5" x2="957.5" y2="1626.5" stroke="black" stroke-opacity="0.25" stroke-width="2" stroke-dasharray="5 5"/>
<line x1="1003.5" y1="2094.5" x2="1003.5" y2="1593.5" stroke="black" stroke-opacity="0.25" stroke-width="2" stroke-dasharray="5 5"/>
<line x1="1047.5" y1="2094.5" x2="1047.5" y2="1558.5" stroke="black" stroke-opacity="0.25" stroke-width="2" stroke-dasharray="5 5"/>
<line x1="1092.5" y1="2094.5" x2="1092.5" y2="1520.5" stroke="black" stroke-opacity="0.25" stroke-width="2" stroke-dasharray="5 5"/>
<line x1="1138.5" y1="2094.5" x2="1138.5" y2="1467.5" stroke="black" stroke-opacity="0.25" stroke-width="2" stroke-dasharray="5 5"/>
<line x1="1183.5" y1="2094.5" x2="1183.5" y2="1437.5" stroke="black" stroke-opacity="0.25" stroke-width="2" stroke-dasharray="5 5"/>
<line x1="1229.5" y1="2094.5" x2="1229.5" y2="1391.5" stroke="black" stroke-opacity="0.25" stroke-width="2" stroke-dasharray="5 5"/>
<line x1="1274.5" y1="2094.5" x2="1274.5" y2="1343.5" stroke="black" stroke-opacity="0.25" stroke-width="2" stroke-dasharray="5 5"/>
<line x1="1320.5" y1="2094.5" x2="1320.5" y2="1291.5" stroke="black" stroke-opacity="0.25" stroke-width="2" stroke-dasharray="5 5"/>
<line x1="1366.5" y1="2094.5" x2="1366.5" y2="1226.5" stroke="black" stroke-opacity="0.25" stroke-width="2" stroke-dasharray="5 5"/>
<line x1="1411.5" y1="2094.5" x2="1411.5" y2="1179.5" stroke="black" stroke-opacity="0.25" stroke-width="2" stroke-dasharray="5 5"/>
<line x1="1456.5" y1="2094.5" x2="1456.5" y2="1119.5" stroke="black" stroke-opacity="0.25" stroke-width="2" stroke-dasharray="5 5"/>
<line x1="1502.5" y1="2094.5" x2="1502.5" y2="1052.5" stroke="black" stroke-opacity="0.25" stroke-width="2" stroke-dasharray="5 5"/>
<line x1="1547.5" y1="2094.5" x2="1547.5" y2="985.5" stroke="black" stroke-opacity="0.25" stroke-width="2" stroke-dasharray="5 5"/>
<line x1="1593.5" y1="2094.5" x2="1593.5" y2="902.5" stroke="black" stroke-opacity="0.25" stroke-width="2" stroke-dasharray="5 5"/>
<line x1="1638.5" y1="2094.5" x2="1638.5" y2="834.5" stroke="black" stroke-opacity="0.25" stroke-width="2" stroke-dasharray="5 5"/>
<line x1="1684.5" y1="2094.5" x2="1684.5" y2="751.5" stroke="black" stroke-opacity="0.25" stroke-width="2" stroke-dasharray="5 5"/>
<line x1="1729.5" y1="2094.5" x2="1729.5" y2="665.5" stroke="black" stroke-opacity="0.25" stroke-width="2" stroke-dasharray="5 5"/>
<line x1="1775.5" y1="2094.5" x2="1775.5" y2="574.5" stroke="black" stroke-opacity="0.25" stroke-width="2" stroke-dasharray="5 5"/>
<line x1="1819.5" y1="2094.5" x2="1819.5" y2="476.5" stroke="black" stroke-opacity="0.25" stroke-width="2" stroke-dasharray="5 5"/>
<line x1="1864.5" y1="2094.5" x2="1864.5" y2="377.5" stroke="black" stroke-opacity="0.25" stroke-width="2" stroke-dasharray="5 5"/>
<line x1="1909.5" y1="2094.5" x2="1909.5" y2="271.5" stroke="black" stroke-opacity="0.25" stroke-width="2" stroke-dasharray="5 5"/>
<line x1="1956.5" y1="2094.5" x2="1956.5" y2="154.5" stroke="black" stroke-opacity="0.25" stroke-width="2" stroke-dasharray="5 5"/>
<line x1="2001.5" y1="2094.5" x2="2001.5" y2="34.5" stroke="black" stroke-opacity="0.25" stroke-width="2" stroke-dasharray="5 5"/>
<line x1="2047.5" y1="2094.5" x2="2047.5" y2="2.5" stroke="black" stroke-opacity="0.25" stroke-width="2" stroke-dasharray="5 5"/>
<line x1="2092.5" y1="2094.5" x2="2092.5" y2="2.5" stroke="black" stroke-opacity="0.25" stroke-width="2" stroke-dasharray="5 5"/>
<line x1="2138.5" y1="2094.5" x2="2138.5" y2="2.5" stroke="black" stroke-opacity="0.25" stroke-width="2" stroke-dasharray="5 5"/>
<line x1="2183.5" y1="2094.5" x2="2183.5" y2="2.5" stroke="black" stroke-opacity="0.25" stroke-width="2" stroke-dasharray="5 5"/>
<line x1="2229.5" y1="2094.5" x2="2229.5" y2="2.5" stroke="black" stroke-opacity="0.25" stroke-width="2" stroke-dasharray="5 5"/>
<line x1="2275.5" y1="2094.5" x2="2275.5" y2="2.5" stroke="black" stroke-opacity="0.25" stroke-width="2" stroke-dasharray="5 5"/>
<line x1="2319.5" y1="2094.5" x2="2319.5" y2="2.5" stroke="black" stroke-opacity="0.25" stroke-width="2" stroke-dasharray="5 5"/>
<line x1="2365.5" y1="2094.5" x2="2365.5" y2="2.5" stroke="black" stroke-opacity="0.25" stroke-width="2" stroke-dasharray="5 5"/>
<line x1="2411.5" y1="2094.5" x2="2411.5" y2="2.5" stroke="black" stroke-opacity="0.25" stroke-width="2" stroke-dasharray="5 5"/>
<line x1="2456.5" y1="2094.5" x2="2456.5" y2="2.5" stroke="black" stroke-opacity="0.25" stroke-width="2" stroke-dasharray="5 5"/>
<line x1="2502.5" y1="2094.5" x2="2502.5" y2="2.5" stroke="black" stroke-opacity="0.25" stroke-width="2" stroke-dasharray="5 5"/>
<line x1="2547.5" y1="2094.5" x2="2547.5" y2="2.5" stroke="black" stroke-opacity="0.25" stroke-width="2" stroke-dasharray="5 5"/>
<line x1="2593.5" y1="2094.5" x2="2593.5" y2="2.5" stroke="black" stroke-opacity="0.25" stroke-width="2" stroke-dasharray="5 5"/>
<line x1="2638.5" y1="2094.5" x2="2638.5" y2="2.5" stroke="black" stroke-opacity="0.25" stroke-width="2" stroke-dasharray="5 5"/>
<line x1="2684.5" y1="2094.5" x2="2684.5" y2="2.5" stroke="black" stroke-opacity="0.25" stroke-width="2" stroke-dasharray="5 5"/>
<line x1="2730.5" y1="2094.5" x2="2730.5" y2="2.5" stroke="black" stroke-opacity="0.25" stroke-width="2" stroke-dasharray="5 5"/>
<line x1="2774.5" y1="2094.5" x2="2774.5" y2="2.5" stroke="black" stroke-opacity="0.25" stroke-width="2" stroke-dasharray="5 5"/>
<line x1="2820.5" y1="2094.5" x2="2820.5" y2="2.5" stroke="black" stroke-opacity="0.25" stroke-width="2" stroke-dasharray="5 5"/>
<path d="M2821.5 2094.5H2.5L2.72983 2.5H2821.5V2094.5Z" stroke="black" stroke-width="5"/>
</svg>
